<svg width="147" height="42" viewBox="0 0 147 42" fill="none" xmlns="http://www.w3.org/2000/svg">
<circle cx="21" cy="21" r="21" fill="#3954FF"/>
<path d="M20.25 8.25C18.5756 8.25 16.9177 8.57979 15.3708 9.22054C13.8239 9.86128 12.4183 10.8004 11.2344 11.9844C10.0504 13.1683 9.11128 14.5739 8.47054 16.1208C7.82979 17.6677 7.5 19.3256 7.5 21C7.5 22.6744 7.82979 24.3323 8.47054 25.8792C9.11128 27.4261 10.0504 28.8317 11.2344 30.0156C12.4183 31.1996 13.8239 32.1387 15.3708 32.7795C16.9177 33.4202 18.5756 33.75 20.25 33.75L20.25 26.8772C19.4782 26.8772 18.7139 26.7252 18.0009 26.4299C17.2878 26.1345 16.6399 25.7016 16.0942 25.1558C15.5484 24.6101 15.1155 23.9622 14.8201 23.2491C14.5248 22.5361 14.3728 21.7718 14.3728 21C14.3728 20.2282 14.5248 19.4639 14.8201 18.7509C15.1155 18.0378 15.5484 17.3899 16.0942 16.8442C16.6399 16.2984 17.2878 15.8655 18.0009 15.5701C18.7139 15.2748 19.4782 15.1228 20.25 15.1228V8.25Z" fill="white"/>
<path d="M21.75 33.75C23.4244 33.75 25.0823 33.4202 26.6292 32.7795C28.1761 32.1387 29.5817 31.1996 30.7656 30.0156C31.9496 28.8317 32.8887 27.4261 33.5295 25.8792C34.1702 24.3323 34.5 22.6744 34.5 21C34.5 19.3256 34.1702 17.6677 33.5295 16.1208C32.8887 14.5739 31.9496 13.1683 30.7656 11.9844C29.5817 10.8004 28.1761 9.86128 26.6292 9.22054C25.0823 8.57979 23.4244 8.25 21.75 8.25L21.75 15.1228C22.5218 15.1228 23.2861 15.2748 23.9991 15.5701C24.7122 15.8655 25.3601 16.2984 25.9058 16.8442C26.4516 17.3899 26.8845 18.0378 27.1799 18.7509C27.4752 19.4639 27.6272 20.2282 27.6272 21C27.6272 21.7718 27.4752 22.5361 27.1799 23.2491C26.8845 23.9622 26.4516 24.6101 25.9058 25.1558C25.3601 25.7016 24.7122 26.1345 23.9991 26.4299C23.2861 26.7252 22.5218 26.8772 21.75 26.8772L21.75 33.75Z" fill="white"/>
<path d="M75.2045 22.8182C75.2045 16.2358 71.1875 12.358 65.848 12.358C60.4986 12.358 56.4915 16.2358 56.4915 22.8182C56.4915 29.3906 60.4986 33.2784 65.848 33.2784C71.1875 33.2784 75.2045 29.4006 75.2045 22.8182ZM71.4957 22.8182C71.4957 27.4517 69.169 29.9673 65.848 29.9673C62.5369 29.9673 60.2003 27.4517 60.2003 22.8182C60.2003 18.1847 62.5369 15.669 65.848 15.669C69.169 15.669 71.4957 18.1847 71.4957 22.8182ZM95.9865 12.6364H92.3175V26.517H92.1385L82.5533 12.6364H79.2521V33H82.941V19.1293H83.1101L92.7052 33H95.9865V12.6364ZM100.566 33H113.224V29.9077H104.255V12.6364H100.566V33ZM113.543 12.6364L120.95 25.4034V33H124.629V25.4034L132.037 12.6364H127.871L122.889 21.6449H122.69L117.709 12.6364H113.543ZM143.293 12.6364H139.783L134.722 15.8878V19.2685L139.485 16.2259H139.604V33H143.293V12.6364Z" fill="#1F2127"/>
</svg>
